<svg xmlns="http://www.w3.org/2000/svg" xmlns:xlink="http://www.w3.org/1999/xlink" width="500" zoomAndPan="magnify" viewBox="0 0 375 374.999991" height="500" preserveAspectRatio="xMidYMid meet" version="1.0"><defs><g/></defs><g fill="#000000" fill-opacity="1"><g transform="translate(60.019599, 193.671198)"><g><path d="M 64.796875 0 L 47.375 0 C 46.769531 0 46.46875 -0.300781 46.46875 -0.90625 L 46.46875 -4.75 C 46.46875 -5.351562 46.769531 -5.65625 47.375 -5.65625 L 52.421875 -5.65625 L 52.421875 -43.21875 L 52.359375 -43.21875 L 38.015625 -7.625 C 37.410156 -6.113281 36.300781 -5.359375 34.6875 -5.359375 C 33.082031 -5.359375 31.976562 -6.113281 31.375 -7.625 L 17.046875 -43.21875 L 16.890625 -43.21875 L 16.890625 -5.65625 L 21.953125 -5.65625 C 22.609375 -5.65625 22.9375 -5.351562 22.9375 -4.75 L 22.9375 -0.90625 C 22.9375 -0.300781 22.609375 0 21.953125 0 L 4.609375 0 C 3.953125 0 3.625 -0.300781 3.625 -0.90625 L 3.625 -4.75 C 3.625 -5.351562 3.953125 -5.65625 4.609375 -5.65625 L 10.328125 -5.65625 L 10.328125 -48.5 L 4.609375 -48.5 C 3.953125 -48.5 3.625 -48.800781 3.625 -49.40625 L 3.625 -53.265625 C 3.625 -53.867188 3.953125 -54.171875 4.609375 -54.171875 L 16.21875 -54.171875 C 17.925781 -54.171875 19.109375 -53.3125 19.765625 -51.59375 L 31 -24.4375 L 34.546875 -14.9375 L 34.859375 -14.9375 C 36.265625 -18.863281 37.421875 -21.984375 38.328125 -24.296875 L 49.640625 -51.59375 C 50.296875 -53.3125 51.503906 -54.171875 53.265625 -54.171875 L 64.796875 -54.171875 C 65.398438 -54.171875 65.703125 -53.867188 65.703125 -53.265625 L 65.703125 -49.40625 C 65.703125 -48.800781 65.398438 -48.5 64.796875 -48.5 L 58.984375 -48.5 L 58.984375 -5.65625 L 64.796875 -5.65625 C 65.398438 -5.65625 65.703125 -5.351562 65.703125 -4.75 L 65.703125 -0.90625 C 65.703125 -0.300781 65.398438 0 64.796875 0 Z M 64.796875 0 "/></g></g></g><g fill="#000000" fill-opacity="1"><g transform="translate(129.34772, 193.671198)"><g/></g></g><g fill="#000000" fill-opacity="1"><g transform="translate(152.958425, 193.671198)"><g/></g></g><g fill="#000000" fill-opacity="1"><g transform="translate(176.574283, 193.671198)"><g><path d="M 18.25 0 L 3.84375 0 C 3.1875 0 2.859375 -0.300781 2.859375 -0.90625 L 2.859375 -4.15625 C 2.859375 -4.75 3.1875 -5.046875 3.84375 -5.046875 L 8 -5.046875 L 8 -49.109375 L 3.84375 -49.109375 C 3.1875 -49.109375 2.859375 -49.410156 2.859375 -50.015625 L 2.859375 -53.265625 C 2.859375 -53.867188 3.1875 -54.171875 3.84375 -54.171875 L 12.21875 -54.171875 C 13.570312 -54.171875 14.25 -53.539062 14.25 -52.28125 L 14.25 -5.046875 L 18.25 -5.046875 C 18.90625 -5.046875 19.234375 -4.75 19.234375 -4.15625 L 19.234375 -0.90625 C 19.234375 -0.300781 18.90625 0 18.25 0 Z M 18.25 0 "/></g></g></g><g fill="#000000" fill-opacity="1"><g transform="translate(198.676313, 193.671198)"><g><path d="M 18.25 0 L 3.84375 0 C 3.1875 0 2.859375 -0.300781 2.859375 -0.90625 L 2.859375 -4.15625 C 2.859375 -4.75 3.1875 -5.046875 3.84375 -5.046875 L 8 -5.046875 L 8 -32.0625 L 3.84375 -32.0625 C 3.1875 -32.0625 2.859375 -32.363281 2.859375 -32.96875 L 2.859375 -36.203125 C 2.859375 -36.804688 3.1875 -37.109375 3.84375 -37.109375 L 13.359375 -37.109375 C 13.953125 -37.109375 14.25 -36.804688 14.25 -36.203125 L 14.25 -5.046875 L 18.25 -5.046875 C 18.90625 -5.046875 19.234375 -4.75 19.234375 -4.15625 L 19.234375 -0.90625 C 19.234375 -0.300781 18.90625 0 18.25 0 Z M 13.984375 -48.28125 C 14.816406 -47.425781 15.234375 -46.421875 15.234375 -45.265625 C 15.234375 -44.109375 14.816406 -43.125 13.984375 -42.3125 C 13.160156 -41.507812 12.171875 -41.109375 11.015625 -41.109375 C 9.859375 -41.109375 8.863281 -41.507812 8.03125 -42.3125 C 7.207031 -43.125 6.796875 -44.109375 6.796875 -45.265625 C 6.796875 -46.421875 7.207031 -47.425781 8.03125 -48.28125 C 8.863281 -49.132812 9.859375 -49.5625 11.015625 -49.5625 C 12.171875 -49.5625 13.160156 -49.132812 13.984375 -48.28125 Z M 13.984375 -48.28125 "/></g></g></g><g fill="#000000" fill-opacity="1"><g transform="translate(220.778344, 193.671198)"><g><path d="M 28.96875 0 L 4.609375 0 C 3.953125 0 3.625 -0.300781 3.625 -0.90625 L 3.625 -4.75 C 3.625 -5.351562 3.953125 -5.65625 4.609375 -5.65625 L 10.328125 -5.65625 L 10.328125 -48.5 L 4.609375 -48.5 C 3.953125 -48.5 3.625 -48.800781 3.625 -49.40625 L 3.625 -53.265625 C 3.625 -53.867188 3.953125 -54.171875 4.609375 -54.171875 L 28.890625 -54.171875 C 33.921875 -54.171875 37.832031 -52.835938 40.625 -50.171875 C 43.414062 -47.503906 44.8125 -44.007812 44.8125 -39.6875 C 44.8125 -34.601562 42.570312 -30.804688 38.09375 -28.296875 C 44.53125 -26.429688 47.75 -22.15625 47.75 -15.46875 C 47.75 -10.738281 46.175781 -6.976562 43.03125 -4.1875 C 39.894531 -1.394531 35.207031 0 28.96875 0 Z M 16.890625 -5.65625 L 28.4375 -5.65625 C 32.414062 -5.65625 35.519531 -6.5 37.75 -8.1875 C 39.988281 -9.875 41.109375 -12.476562 41.109375 -16 C 41.109375 -22.28125 37.035156 -25.421875 28.890625 -25.421875 L 16.890625 -25.421875 Z M 16.890625 -30.40625 L 28.4375 -30.40625 C 31.050781 -30.457031 33.328125 -31.210938 35.265625 -32.671875 C 37.203125 -34.128906 38.171875 -36.414062 38.171875 -39.53125 C 38.171875 -42.644531 37.148438 -44.914062 35.109375 -46.34375 C 33.078125 -47.78125 30.578125 -48.5 27.609375 -48.5 L 16.890625 -48.5 Z M 16.890625 -30.40625 "/></g></g></g><g fill="#000000" fill-opacity="1"><g transform="translate(272.148591, 193.671198)"><g><path d="M 28.96875 0 L 4.609375 0 C 3.953125 0 3.625 -0.300781 3.625 -0.90625 L 3.625 -4.75 C 3.625 -5.351562 3.953125 -5.65625 4.609375 -5.65625 L 10.328125 -5.65625 L 10.328125 -48.5 L 4.609375 -48.5 C 3.953125 -48.5 3.625 -48.800781 3.625 -49.40625 L 3.625 -53.265625 C 3.625 -53.867188 3.953125 -54.171875 4.609375 -54.171875 L 28.890625 -54.171875 C 33.921875 -54.171875 37.832031 -52.835938 40.625 -50.171875 C 43.414062 -47.503906 44.8125 -44.007812 44.8125 -39.6875 C 44.8125 -34.601562 42.570312 -30.804688 38.09375 -28.296875 C 44.53125 -26.429688 47.75 -22.15625 47.75 -15.46875 C 47.75 -10.738281 46.175781 -6.976562 43.03125 -4.1875 C 39.894531 -1.394531 35.207031 0 28.96875 0 Z M 16.890625 -5.65625 L 28.4375 -5.65625 C 32.414062 -5.65625 35.519531 -6.5 37.75 -8.1875 C 39.988281 -9.875 41.109375 -12.476562 41.109375 -16 C 41.109375 -22.28125 37.035156 -25.421875 28.890625 -25.421875 L 16.890625 -25.421875 Z M 16.890625 -30.40625 L 28.4375 -30.40625 C 31.050781 -30.457031 33.328125 -31.210938 35.265625 -32.671875 C 37.203125 -34.128906 38.171875 -36.414062 38.171875 -39.53125 C 38.171875 -42.644531 37.148438 -44.914062 35.109375 -46.34375 C 33.078125 -47.78125 30.578125 -48.5 27.609375 -48.5 L 16.890625 -48.5 Z M 16.890625 -30.40625 "/></g></g></g><g fill="#000000" fill-opacity="1"><g transform="translate(189.575338, 217.329171)"><g><path d="M 1.3125 1.25 L 1.3125 0 L 8.984375 0 L 8.984375 1.25 Z M 1.3125 1.25 "/></g></g></g><g fill="#000000" fill-opacity="1"><g transform="translate(201.387602, 217.329171)"><g><path d="M 17.125 0 L 15.765625 0 L 15.765625 -5.859375 C 15.765625 -7.085938 15.566406 -7.988281 15.171875 -8.5625 C 14.785156 -9.144531 14.207031 -9.4375 13.4375 -9.4375 C 13.039062 -9.4375 12.660156 -9.359375 12.296875 -9.203125 C 11.941406 -9.054688 11.613281 -8.847656 11.3125 -8.578125 C 11.007812 -8.316406 10.742188 -8 10.515625 -7.625 C 10.285156 -7.257812 10.113281 -6.851562 10 -6.40625 L 10 0 L 8.625 0 L 8.625 -5.859375 C 8.625 -7.109375 8.4375 -8.015625 8.0625 -8.578125 C 7.6875 -9.148438 7.109375 -9.4375 6.328125 -9.4375 C 5.535156 -9.4375 4.828125 -9.160156 4.203125 -8.609375 C 3.585938 -8.054688 3.144531 -7.332031 2.875 -6.4375 L 2.875 0 L 1.515625 0 L 1.515625 -10.5 L 2.765625 -10.5 L 2.765625 -8.125 C 3.191406 -8.925781 3.753906 -9.550781 4.453125 -10 C 5.148438 -10.457031 5.921875 -10.6875 6.765625 -10.6875 C 7.660156 -10.6875 8.367188 -10.4375 8.890625 -9.9375 C 9.421875 -9.4375 9.75 -8.785156 9.875 -7.984375 C 10.851562 -9.785156 12.203125 -10.6875 13.921875 -10.6875 C 14.515625 -10.6875 15.015625 -10.578125 15.421875 -10.359375 C 15.835938 -10.140625 16.171875 -9.832031 16.421875 -9.4375 C 16.671875 -9.039062 16.847656 -8.5625 16.953125 -8 C 17.066406 -7.445312 17.125 -6.828125 17.125 -6.140625 Z M 17.125 0 "/></g></g></g><g fill="#000000" fill-opacity="1"><g transform="translate(221.423614, 217.329171)"><g><path d="M 6.046875 0.203125 C 5.273438 0.203125 4.570312 0.0546875 3.9375 -0.234375 C 3.300781 -0.523438 2.75 -0.921875 2.28125 -1.421875 C 1.8125 -1.921875 1.441406 -2.5 1.171875 -3.15625 C 0.910156 -3.820312 0.78125 -4.53125 0.78125 -5.28125 C 0.78125 -6.019531 0.910156 -6.710938 1.171875 -7.359375 C 1.441406 -8.015625 1.804688 -8.585938 2.265625 -9.078125 C 2.734375 -9.566406 3.285156 -9.957031 3.921875 -10.25 C 4.566406 -10.539062 5.269531 -10.6875 6.03125 -10.6875 C 6.789062 -10.6875 7.488281 -10.539062 8.125 -10.25 C 8.769531 -9.957031 9.320312 -9.5625 9.78125 -9.0625 C 10.238281 -8.570312 10.59375 -8.003906 10.84375 -7.359375 C 11.101562 -6.710938 11.234375 -6.023438 11.234375 -5.296875 C 11.234375 -5.191406 11.234375 -5.082031 11.234375 -4.96875 C 11.234375 -4.863281 11.222656 -4.789062 11.203125 -4.75 L 2.21875 -4.75 C 2.257812 -4.1875 2.390625 -3.664062 2.609375 -3.1875 C 2.828125 -2.71875 3.109375 -2.304688 3.453125 -1.953125 C 3.804688 -1.609375 4.207031 -1.335938 4.65625 -1.140625 C 5.113281 -0.941406 5.597656 -0.84375 6.109375 -0.84375 C 6.441406 -0.84375 6.773438 -0.890625 7.109375 -0.984375 C 7.453125 -1.078125 7.765625 -1.203125 8.046875 -1.359375 C 8.328125 -1.523438 8.582031 -1.722656 8.8125 -1.953125 C 9.039062 -2.191406 9.210938 -2.453125 9.328125 -2.734375 L 10.515625 -2.421875 C 10.359375 -2.023438 10.128906 -1.671875 9.828125 -1.359375 C 9.535156 -1.046875 9.191406 -0.769531 8.796875 -0.53125 C 8.410156 -0.300781 7.984375 -0.125 7.515625 0 C 7.046875 0.132812 6.554688 0.203125 6.046875 0.203125 Z M 9.921875 -5.8125 C 9.878906 -6.375 9.742188 -6.882812 9.515625 -7.34375 C 9.296875 -7.8125 9.015625 -8.210938 8.671875 -8.546875 C 8.328125 -8.878906 7.929688 -9.140625 7.484375 -9.328125 C 7.035156 -9.515625 6.554688 -9.609375 6.046875 -9.609375 C 5.535156 -9.609375 5.050781 -9.515625 4.59375 -9.328125 C 4.132812 -9.140625 3.734375 -8.878906 3.390625 -8.546875 C 3.046875 -8.210938 2.769531 -7.804688 2.5625 -7.328125 C 2.351562 -6.859375 2.234375 -6.351562 2.203125 -5.8125 Z M 9.921875 -5.8125 "/></g></g></g><g fill="#000000" fill-opacity="1"><g transform="translate(234.76775, 217.329171)"><g><path d="M 5 0.203125 C 4.175781 0.203125 3.375 0.0664062 2.59375 -0.203125 C 1.820312 -0.472656 1.148438 -0.863281 0.578125 -1.375 L 1.203125 -2.296875 C 1.796875 -1.816406 2.398438 -1.453125 3.015625 -1.203125 C 3.628906 -0.960938 4.285156 -0.84375 4.984375 -0.84375 C 5.828125 -0.84375 6.5 -1.015625 7 -1.359375 C 7.507812 -1.703125 7.765625 -2.191406 7.765625 -2.828125 C 7.765625 -3.117188 7.695312 -3.359375 7.5625 -3.546875 C 7.425781 -3.742188 7.226562 -3.914062 6.96875 -4.0625 C 6.707031 -4.21875 6.375 -4.351562 5.96875 -4.46875 C 5.570312 -4.582031 5.113281 -4.695312 4.59375 -4.8125 C 3.988281 -4.957031 3.460938 -5.101562 3.015625 -5.25 C 2.578125 -5.40625 2.210938 -5.578125 1.921875 -5.765625 C 1.628906 -5.953125 1.410156 -6.179688 1.265625 -6.453125 C 1.128906 -6.734375 1.0625 -7.082031 1.0625 -7.5 C 1.0625 -8.019531 1.164062 -8.484375 1.375 -8.890625 C 1.582031 -9.296875 1.863281 -9.628906 2.21875 -9.890625 C 2.582031 -10.148438 3 -10.347656 3.46875 -10.484375 C 3.945312 -10.617188 4.457031 -10.6875 5 -10.6875 C 5.800781 -10.6875 6.53125 -10.550781 7.1875 -10.28125 C 7.851562 -10.019531 8.382812 -9.675781 8.78125 -9.25 L 8.125 -8.453125 C 7.726562 -8.847656 7.25 -9.144531 6.6875 -9.34375 C 6.132812 -9.550781 5.554688 -9.65625 4.953125 -9.65625 C 4.597656 -9.65625 4.265625 -9.617188 3.953125 -9.546875 C 3.640625 -9.472656 3.363281 -9.351562 3.125 -9.1875 C 2.894531 -9.03125 2.710938 -8.828125 2.578125 -8.578125 C 2.441406 -8.328125 2.375 -8.035156 2.375 -7.703125 C 2.375 -7.421875 2.421875 -7.191406 2.515625 -7.015625 C 2.609375 -6.835938 2.765625 -6.6875 2.984375 -6.5625 C 3.203125 -6.4375 3.472656 -6.320312 3.796875 -6.21875 C 4.128906 -6.113281 4.53125 -6.007812 5 -5.90625 C 5.664062 -5.738281 6.253906 -5.578125 6.765625 -5.421875 C 7.273438 -5.265625 7.703125 -5.078125 8.046875 -4.859375 C 8.390625 -4.640625 8.648438 -4.375 8.828125 -4.0625 C 9.003906 -3.757812 9.09375 -3.382812 9.09375 -2.9375 C 9.09375 -1.96875 8.722656 -1.203125 7.984375 -0.640625 C 7.242188 -0.078125 6.25 0.203125 5 0.203125 Z M 5 0.203125 "/></g></g></g><g fill="#000000" fill-opacity="1"><g transform="translate(246.096262, 217.329171)"><g><path d="M 4.796875 0.203125 C 3.648438 0.203125 2.796875 -0.175781 2.234375 -0.9375 C 1.679688 -1.695312 1.40625 -2.828125 1.40625 -4.328125 L 1.40625 -10.5 L 2.78125 -10.5 L 2.78125 -4.578125 C 2.78125 -2.191406 3.59375 -1 5.21875 -1 C 5.625 -1 6.019531 -1.066406 6.40625 -1.203125 C 6.800781 -1.335938 7.160156 -1.53125 7.484375 -1.78125 C 7.816406 -2.039062 8.113281 -2.34375 8.375 -2.6875 C 8.632812 -3.039062 8.847656 -3.441406 9.015625 -3.890625 L 9.015625 -10.5 L 10.375 -10.5 L 10.375 -1.78125 C 10.375 -1.394531 10.535156 -1.203125 10.859375 -1.203125 L 10.859375 0 C 10.703125 0.03125 10.570312 0.046875 10.46875 0.046875 C 10.363281 0.046875 10.296875 0.046875 10.265625 0.046875 C 9.941406 0.0234375 9.675781 -0.0859375 9.46875 -0.296875 C 9.269531 -0.515625 9.171875 -0.804688 9.171875 -1.171875 L 9.171875 -2.375 C 8.710938 -1.5625 8.085938 -0.925781 7.296875 -0.46875 C 6.515625 -0.0195312 5.679688 0.203125 4.796875 0.203125 Z M 4.796875 0.203125 "/></g></g></g><g fill="#000000" fill-opacity="1"><g transform="translate(259.581492, 217.329171)"><g><path d="M 6.75 -9.296875 C 5.820312 -9.265625 5.015625 -9.003906 4.328125 -8.515625 C 3.648438 -8.035156 3.164062 -7.375 2.875 -6.53125 L 2.875 0 L 1.515625 0 L 1.515625 -10.5 L 2.796875 -10.5 L 2.796875 -7.984375 C 3.191406 -8.785156 3.71875 -9.414062 4.375 -9.875 C 5.03125 -10.332031 5.734375 -10.5625 6.484375 -10.5625 C 6.597656 -10.5625 6.6875 -10.554688 6.75 -10.546875 Z M 6.75 -9.296875 "/></g></g></g><g fill="#000000" fill-opacity="1"><g transform="translate(268.168755, 217.329171)"><g><path d="M 4.15625 0.203125 C 3.65625 0.203125 3.191406 0.117188 2.765625 -0.046875 C 2.347656 -0.210938 1.976562 -0.441406 1.65625 -0.734375 C 1.34375 -1.035156 1.097656 -1.382812 0.921875 -1.78125 C 0.753906 -2.175781 0.671875 -2.601562 0.671875 -3.0625 C 0.671875 -3.519531 0.773438 -3.941406 0.984375 -4.328125 C 1.203125 -4.722656 1.503906 -5.0625 1.890625 -5.34375 C 2.285156 -5.625 2.75 -5.84375 3.28125 -6 C 3.820312 -6.15625 4.414062 -6.234375 5.0625 -6.234375 C 5.59375 -6.234375 6.132812 -6.1875 6.6875 -6.09375 C 7.238281 -6 7.726562 -5.863281 8.15625 -5.6875 L 8.15625 -6.625 C 8.15625 -7.550781 7.894531 -8.285156 7.375 -8.828125 C 6.851562 -9.378906 6.128906 -9.65625 5.203125 -9.65625 C 4.660156 -9.65625 4.109375 -9.546875 3.546875 -9.328125 C 2.984375 -9.117188 2.410156 -8.8125 1.828125 -8.40625 L 1.34375 -9.3125 C 2.707031 -10.226562 4.023438 -10.6875 5.296875 -10.6875 C 6.617188 -10.6875 7.65625 -10.316406 8.40625 -9.578125 C 9.15625 -8.835938 9.53125 -7.816406 9.53125 -6.515625 L 9.53125 -1.78125 C 9.53125 -1.394531 9.695312 -1.203125 10.03125 -1.203125 L 10.03125 0 C 9.800781 0.0390625 9.628906 0.0625 9.515625 0.0625 C 9.160156 0.0625 8.882812 -0.0234375 8.6875 -0.203125 C 8.5 -0.378906 8.398438 -0.617188 8.390625 -0.921875 L 8.34375 -1.75 C 7.863281 -1.125 7.253906 -0.640625 6.515625 -0.296875 C 5.785156 0.0351562 5 0.203125 4.15625 0.203125 Z M 4.46875 -0.84375 C 5.1875 -0.84375 5.84375 -0.976562 6.4375 -1.25 C 7.039062 -1.519531 7.492188 -1.875 7.796875 -2.3125 C 7.921875 -2.4375 8.007812 -2.566406 8.0625 -2.703125 C 8.125 -2.847656 8.15625 -2.984375 8.15625 -3.109375 L 8.15625 -4.8125 C 7.707031 -4.988281 7.234375 -5.125 6.734375 -5.21875 C 6.242188 -5.3125 5.742188 -5.359375 5.234375 -5.359375 C 4.273438 -5.359375 3.488281 -5.15625 2.875 -4.75 C 2.269531 -4.351562 1.96875 -3.828125 1.96875 -3.171875 C 1.96875 -2.847656 2.03125 -2.539062 2.15625 -2.25 C 2.289062 -1.96875 2.46875 -1.722656 2.6875 -1.515625 C 2.90625 -1.304688 3.171875 -1.140625 3.484375 -1.015625 C 3.796875 -0.898438 4.125 -0.84375 4.46875 -0.84375 Z M 4.46875 -0.84375 "/></g></g></g><g fill="#000000" fill-opacity="1"><g transform="translate(280.666326, 217.329171)"><g><path d="M 5 0.203125 C 4.175781 0.203125 3.375 0.0664062 2.59375 -0.203125 C 1.820312 -0.472656 1.148438 -0.863281 0.578125 -1.375 L 1.203125 -2.296875 C 1.796875 -1.816406 2.398438 -1.453125 3.015625 -1.203125 C 3.628906 -0.960938 4.285156 -0.84375 4.984375 -0.84375 C 5.828125 -0.84375 6.5 -1.015625 7 -1.359375 C 7.507812 -1.703125 7.765625 -2.191406 7.765625 -2.828125 C 7.765625 -3.117188 7.695312 -3.359375 7.5625 -3.546875 C 7.425781 -3.742188 7.226562 -3.914062 6.96875 -4.0625 C 6.707031 -4.21875 6.375 -4.351562 5.96875 -4.46875 C 5.570312 -4.582031 5.113281 -4.695312 4.59375 -4.8125 C 3.988281 -4.957031 3.460938 -5.101562 3.015625 -5.25 C 2.578125 -5.40625 2.210938 -5.578125 1.921875 -5.765625 C 1.628906 -5.953125 1.410156 -6.179688 1.265625 -6.453125 C 1.128906 -6.734375 1.0625 -7.082031 1.0625 -7.5 C 1.0625 -8.019531 1.164062 -8.484375 1.375 -8.890625 C 1.582031 -9.296875 1.863281 -9.628906 2.21875 -9.890625 C 2.582031 -10.148438 3 -10.347656 3.46875 -10.484375 C 3.945312 -10.617188 4.457031 -10.6875 5 -10.6875 C 5.800781 -10.6875 6.53125 -10.550781 7.1875 -10.28125 C 7.851562 -10.019531 8.382812 -9.675781 8.78125 -9.25 L 8.125 -8.453125 C 7.726562 -8.847656 7.25 -9.144531 6.6875 -9.34375 C 6.132812 -9.550781 5.554688 -9.65625 4.953125 -9.65625 C 4.597656 -9.65625 4.265625 -9.617188 3.953125 -9.546875 C 3.640625 -9.472656 3.363281 -9.351562 3.125 -9.1875 C 2.894531 -9.03125 2.710938 -8.828125 2.578125 -8.578125 C 2.441406 -8.328125 2.375 -8.035156 2.375 -7.703125 C 2.375 -7.421875 2.421875 -7.191406 2.515625 -7.015625 C 2.609375 -6.835938 2.765625 -6.6875 2.984375 -6.5625 C 3.203125 -6.4375 3.472656 -6.320312 3.796875 -6.21875 C 4.128906 -6.113281 4.53125 -6.007812 5 -5.90625 C 5.664062 -5.738281 6.253906 -5.578125 6.765625 -5.421875 C 7.273438 -5.265625 7.703125 -5.078125 8.046875 -4.859375 C 8.390625 -4.640625 8.648438 -4.375 8.828125 -4.0625 C 9.003906 -3.757812 9.09375 -3.382812 9.09375 -2.9375 C 9.09375 -1.96875 8.722656 -1.203125 7.984375 -0.640625 C 7.242188 -0.078125 6.25 0.203125 5 0.203125 Z M 5 0.203125 "/></g></g></g><g fill="#000000" fill-opacity="1"><g transform="translate(291.994838, 217.329171)"><g><path d="M 10.34375 0 L 8.96875 0 L 8.96875 -5.859375 C 8.96875 -7.054688 8.757812 -7.953125 8.34375 -8.546875 C 7.9375 -9.140625 7.335938 -9.4375 6.546875 -9.4375 C 6.160156 -9.4375 5.773438 -9.359375 5.390625 -9.203125 C 5.003906 -9.046875 4.644531 -8.832031 4.3125 -8.5625 C 3.976562 -8.289062 3.6875 -7.972656 3.4375 -7.609375 C 3.1875 -7.253906 3 -6.863281 2.875 -6.4375 L 2.875 0 L 1.515625 0 L 1.515625 -14.71875 L 2.875 -14.71875 L 2.875 -8.125 C 3.289062 -8.914062 3.867188 -9.539062 4.609375 -10 C 5.347656 -10.457031 6.148438 -10.6875 7.015625 -10.6875 C 7.617188 -10.6875 8.128906 -10.570312 8.546875 -10.34375 C 8.960938 -10.125 9.304688 -9.816406 9.578125 -9.421875 C 9.847656 -9.023438 10.039062 -8.546875 10.15625 -7.984375 C 10.28125 -7.429688 10.34375 -6.816406 10.34375 -6.140625 Z M 10.34375 0 "/></g></g></g><g fill="#000000" fill-opacity="1"><g transform="translate(305.258344, 217.329171)"><g><path d="M 1.515625 0 L 1.515625 -10.5 L 2.875 -10.5 L 2.875 0 Z M 1.515625 -12.703125 L 1.515625 -14.71875 L 2.875 -14.71875 L 2.875 -12.703125 Z M 1.515625 -12.703125 "/></g></g></g><g fill="#000000" fill-opacity="1"><g transform="translate(311.164811, 217.329171)"><g><path d="M 1.515625 0 L 1.515625 -10.5 L 2.875 -10.5 L 2.875 0 Z M 1.515625 -12.703125 L 1.515625 -14.71875 L 2.875 -14.71875 L 2.875 -12.703125 Z M 1.515625 -12.703125 "/></g></g></g><g fill="#35d5d0" fill-opacity="1"><g transform="translate(129.1898, 155.77872)"><g><path d="M 5.234375 15.765625 L 14.21875 0.90625 L 25.015625 0.90625 L 33.9375 15.765625 L 24.53125 15.765625 L 19.5625 6.84375 L 14.546875 15.765625 Z M 5.234375 15.765625 "/></g></g></g><g fill="#35d5d0" fill-opacity="1"><g transform="translate(129.1898, 172.934433)"><g><path d="M 0 0.75 L 46.125 11.4375 L 46.125 20.953125 L 0 10.203125 Z M 0 0.75 "/></g></g></g><g fill="#35d5d0" fill-opacity="1"><g transform="translate(129.1898, 194.579491)"><g><path d="M 5.234375 1.390625 L 14.546875 1.390625 L 19.5625 10.3125 L 24.53125 1.390625 L 33.9375 1.390625 L 25.015625 16.25 L 14.21875 16.25 Z M 5.234375 1.390625 "/></g></g></g></svg>